<svg width="50" height="50" viewBox="0 0 50 50" fill="none" xmlns="http://www.w3.org/2000/svg">
<circle cx="24.7007" cy="24.7007" r="24.7007" fill="#D9D9D9"/>
<g clip-path="url(#clip0_5_53)">
<path fill-rule="evenodd" clip-rule="evenodd" d="M17.6658 7.37934C14.752 7.51081 12.2265 8.22319 10.1873 10.2539C8.14086 12.2952 7.43733 14.8307 7.30553 17.7141C7.2236 19.5139 6.74453 33.1103 8.13373 36.676C9.07055 39.0815 10.9157 40.9311 13.3432 41.8709C14.4759 42.3115 15.769 42.6098 17.6658 42.6968C33.5258 43.4146 39.405 43.0238 41.8842 36.676C42.3241 35.5461 42.6269 34.2541 42.7106 32.362C43.4355 16.4613 42.5931 13.0147 39.8289 10.2539C37.6365 8.06684 35.0575 6.57809 17.6658 7.37934ZM17.8118 39.4989C16.0753 39.4208 15.1331 39.1314 14.5044 38.888C12.9229 38.2733 11.7349 37.0903 11.1241 35.518C10.0661 32.8086 10.417 19.9406 10.5114 17.8584C10.604 15.8188 11.0172 13.9548 12.4563 12.5157C14.2373 10.7391 16.5384 9.86838 32.2061 10.5755C34.2507 10.6679 36.119 11.0802 37.5616 12.5157C39.3427 14.2923 40.2261 16.6111 39.5065 32.2187C39.4282 33.9509 39.1379 34.8908 38.8939 35.518C37.282 39.6486 33.5739 40.222 17.8118 39.4989ZM32.3788 15.5537C32.3788 16.7298 33.3353 17.6862 34.5161 17.6862C35.6969 17.6862 36.6551 16.7298 36.6551 15.5537C36.6551 14.3776 35.6969 13.422 34.5161 13.422C33.3353 13.422 32.3788 14.3776 32.3788 15.5537ZM15.8634 25.0372C15.8634 30.0757 19.958 34.1607 25.009 34.1607C30.06 34.1607 34.1545 30.0757 34.1545 25.0372C34.1545 19.9987 30.06 15.9164 25.009 15.9164C19.958 15.9164 15.8634 19.9987 15.8634 25.0372ZM19.0728 25.0372C19.0728 21.7682 21.7301 19.116 25.009 19.116C28.2878 19.116 30.9451 21.7682 30.9451 25.0372C30.9451 28.308 28.2878 30.961 25.009 30.961C21.7301 30.961 19.0728 28.308 19.0728 25.0372Z" fill="#6A2A47"/>
</g>
<defs>
<clipPath id="clip0_5_53">
<rect width="35.7982" height="35.7982" fill="white" transform="translate(7.15964 7.15967)"/>
</clipPath>
</defs>
</svg>
